<svg data-v-fde0c5aa="" xmlns="http://www.w3.org/2000/svg" viewBox="0 0 300 300" class="iconLeftSlogan"><!----><defs data-v-fde0c5aa=""><linearGradient data-v-fde0c5aa="" gradientTransform="rotate(25)" id="eb82ab7e-ce82-4f34-8c94-d9cba4449aa9" x1="0%" y1="0%" x2="100%" y2="0%"><stop data-v-fde0c5aa="" offset="0%" stop-color="#177775" stop-opacity="1"></stop><stop data-v-fde0c5aa="" offset="100%" stop-color="#28D2BF" stop-opacity="1"></stop></linearGradient></defs><rect data-v-fde0c5aa="" fill="url(#eb82ab7e-ce82-4f34-8c94-d9cba4449aa9)" x="0" y="0" width="300px" height="300px" class="logo-background-square"></rect><defs data-v-fde0c5aa=""><!----></defs><g data-v-fde0c5aa="" id="41d606f8-aaac-4a61-9d31-1e94c1c48b4b" fill="#ffffff" transform="matrix(2.001354990012746,0,0,2.001354990012746,109.7382600319947,120.59686302827107)"><path d="M7.41 11.19L6.83 9.67L3.09 9.67L3.09 9.67Q2.86 10.25 2.69 10.69L2.69 10.69L2.69 10.69Q2.52 11.13 2.42 11.45L2.42 11.45L2.42 11.45Q2.31 11.77 2.27 12.00L2.27 12.00L2.27 12.00Q2.23 12.22 2.23 12.36L2.23 12.36L2.23 12.36Q2.23 12.75 2.48 12.90L2.48 12.90L2.48 12.90Q2.73 13.05 3.32 13.05L3.32 13.05L3.32 13.58L-0.08 13.58L-0.08 13.05L-0.08 13.05Q0.24 13.01 0.47 12.94L0.47 12.94L0.47 12.94Q0.70 12.87 0.88 12.74L0.88 12.74L0.88 12.74Q1.05 12.61 1.18 12.41L1.18 12.41L1.18 12.41Q1.32 12.21 1.44 11.91L1.44 11.91L5.08 2.80L5.68 2.80L8.86 10.70L8.86 10.70Q9.18 11.48 9.42 11.95L9.42 11.95L9.42 11.95Q9.66 12.42 9.88 12.66L9.88 12.66L9.88 12.66Q10.11 12.89 10.37 12.96L10.37 12.96L10.37 12.96Q10.63 13.03 10.99 13.03L10.99 13.03L10.99 13.58L6.43 13.58L6.43 13.03L6.43 13.03Q7.17 13.03 7.45 12.89L7.45 12.89L7.45 12.89Q7.73 12.75 7.73 12.43L7.73 12.43L7.73 12.43Q7.73 12.29 7.71 12.17L7.71 12.17L7.71 12.17Q7.70 12.05 7.67 11.91L7.67 11.91L7.67 11.91Q7.63 11.77 7.57 11.60L7.57 11.60L7.57 11.60Q7.50 11.42 7.41 11.19L7.41 11.19ZM5.01 4.84L3.37 8.97L6.57 8.97L5.01 4.84ZM13.75 6.08L13.75 7.17L13.80 7.17L13.80 7.17Q14.25 6.64 14.77 6.33L14.77 6.33L14.77 6.33Q15.29 6.02 15.97 6.02L15.97 6.02L15.97 6.02Q16.77 6.02 17.44 6.31L17.44 6.31L17.44 6.31Q18.10 6.59 18.59 7.11L18.59 7.11L18.59 7.11Q19.08 7.63 19.36 8.34L19.36 8.34L19.36 8.34Q19.63 9.04 19.63 9.88L19.63 9.88L19.63 9.88Q19.63 10.74 19.35 11.45L19.35 11.45L19.35 11.45Q19.07 12.15 18.58 12.66L18.58 12.66L18.58 12.66Q18.09 13.16 17.42 13.44L17.42 13.44L17.42 13.44Q16.74 13.72 15.96 13.72L15.96 13.72L15.96 13.72Q15.32 13.72 14.79 13.50L14.79 13.50L14.79 13.50Q14.27 13.29 13.80 12.80L13.80 12.80L13.80 14.84L13.80 14.84Q13.80 15.40 13.86 15.74L13.86 15.74L13.86 15.74Q13.92 16.07 14.08 16.25L14.08 16.25L14.08 16.25Q14.25 16.44 14.57 16.51L14.57 16.51L14.57 16.51Q14.88 16.58 15.40 16.59L15.40 16.59L15.40 17.08L11.09 17.08L11.09 16.59L11.09 16.59Q11.51 16.58 11.77 16.51L11.77 16.51L11.77 16.51Q12.03 16.44 12.17 16.25L12.17 16.25L12.17 16.25Q12.32 16.07 12.38 15.76L12.38 15.76L12.38 15.76Q12.43 15.44 12.43 14.94L12.43 14.94L12.43 9.70L12.43 9.70Q12.43 8.89 12.41 8.37L12.41 8.37L12.41 8.37Q12.39 7.85 12.33 7.66L12.33 7.66L12.33 7.66Q12.26 7.32 12.01 7.20L12.01 7.20L12.01 7.20Q11.76 7.08 11.06 7.08L11.06 7.08L11.06 6.61L13.75 6.08ZM14.17 7.57L14.17 7.57L14.17 7.57Q13.99 7.85 13.89 8.24L13.89 8.24L13.89 8.24Q13.80 8.62 13.80 9.24L13.80 9.24L13.80 10.33L13.80 10.33Q13.80 10.71 13.82 10.98L13.82 10.98L13.82 10.98Q13.85 11.26 13.89 11.45L13.89 11.45L13.89 11.45Q13.93 11.65 14 11.80L14 11.80L14 11.80Q14.07 11.96 14.18 12.10L14.18 12.10L14.18 12.10Q14.50 12.54 14.95 12.79L14.95 12.79L14.95 12.79Q15.40 13.03 15.89 13.03L15.89 13.03L15.89 13.03Q16.86 13.03 17.45 12.22L17.45 12.22L17.45 12.22Q18.05 11.41 18.05 9.94L18.05 9.94L18.05 9.94Q18.05 9.21 17.88 8.62L17.88 8.62L17.88 8.62Q17.72 8.02 17.43 7.59L17.43 7.59L17.43 7.59Q17.14 7.17 16.72 6.93L16.72 6.93L16.72 6.93Q16.31 6.69 15.81 6.69L15.81 6.69L15.81 6.69Q15.30 6.69 14.88 6.92L14.88 6.92L14.88 6.92Q14.45 7.15 14.17 7.57ZM21.71 7.04L20.87 7.04L20.87 6.52L20.87 6.52Q21.62 6.09 22.04 5.66L22.04 5.66L22.04 5.66Q22.46 5.22 22.68 4.62L22.68 4.62L23.09 4.62L23.09 6.38L24.96 6.38L24.96 7.04L23.09 7.04L23.09 11.30L23.09 11.30Q23.09 11.79 23.14 12.12L23.14 12.12L23.14 12.12Q23.18 12.46 23.30 12.66L23.30 12.66L23.30 12.66Q23.41 12.87 23.59 12.95L23.59 12.95L23.59 12.95Q23.77 13.03 24.05 13.03L24.05 13.03L24.05 13.03Q24.40 13.03 24.65 12.89L24.65 12.89L24.65 12.89Q24.89 12.74 25.13 12.39L25.13 12.39L25.48 12.66L25.48 12.66Q25.28 13.17 24.80 13.45L24.80 13.45L24.80 13.45Q24.32 13.72 23.60 13.72L23.60 13.72L23.60 13.72Q22.68 13.72 22.20 13.28L22.20 13.28L22.20 13.28Q21.71 12.84 21.71 12.01L21.71 12.01L21.71 7.04ZM40.18 13.72L39.34 13.72L32.69 4.96L32.63 4.96L32.63 10.93L32.63 10.93Q32.63 11.63 32.68 12.04L32.68 12.04L32.68 12.04Q32.73 12.45 32.88 12.67L32.88 12.67L32.88 12.67Q33.03 12.89 33.30 12.96L33.30 12.96L33.30 12.96Q33.57 13.03 34.02 13.05L34.02 13.05L34.02 13.58L30.25 13.58L30.25 13.05L30.25 13.05Q30.74 13.03 31.05 12.96L31.05 12.96L31.05 12.96Q31.35 12.88 31.51 12.67L31.51 12.67L31.51 12.67Q31.68 12.46 31.74 12.07L31.74 12.07L31.74 12.07Q31.79 11.69 31.79 11.03L31.79 11.03L31.79 5.35L31.79 5.35Q31.79 4.76 31.75 4.38L31.75 4.38L31.75 4.38Q31.70 3.99 31.55 3.77L31.55 3.77L31.55 3.77Q31.40 3.54 31.12 3.45L31.12 3.45L31.12 3.45Q30.84 3.36 30.39 3.33L30.39 3.33L30.39 2.80L33.17 2.80L39.28 10.96L39.34 10.96L39.34 5.45L39.34 5.45Q39.34 4.76 39.29 4.35L39.29 4.35L39.29 4.35Q39.24 3.93 39.09 3.71L39.09 3.71L39.09 3.71Q38.95 3.49 38.68 3.42L38.68 3.42L38.68 3.42Q38.40 3.35 37.95 3.33L37.95 3.33L37.95 2.80L41.72 2.80L41.72 3.33L41.72 3.33Q41.23 3.35 40.93 3.42L40.93 3.42L40.93 3.42Q40.63 3.50 40.46 3.71L40.46 3.71L40.46 3.71Q40.29 3.92 40.24 4.31L40.24 4.31L40.24 4.31Q40.18 4.70 40.18 5.35L40.18 5.35L40.18 13.72ZM46.62 10.54L46.62 9.44L46.62 9.44Q45.82 9.74 45.27 10.04L45.27 10.04L45.27 10.04Q44.72 10.33 44.38 10.63L44.38 10.63L44.38 10.63Q44.04 10.92 43.90 11.21L43.90 11.21L43.90 11.21Q43.75 11.51 43.75 11.82L43.75 11.82L43.75 11.82Q43.75 12.28 44.06 12.57L44.06 12.57L44.06 12.57Q44.37 12.87 44.87 12.87L44.87 12.87L44.87 12.87Q45.23 12.87 45.55 12.68L45.55 12.68L45.55 12.68Q45.86 12.50 46.10 12.19L46.10 12.19L46.10 12.19Q46.34 11.87 46.48 11.45L46.48 11.45L46.48 11.45Q46.62 11.02 46.62 10.54L46.62 10.54ZM44.60 9.72L46.62 8.83L46.62 8.26L46.62 8.26Q46.62 6.55 45.16 6.55L45.16 6.55L45.16 6.55Q44.93 6.55 44.76 6.59L44.76 6.59L44.76 6.59Q44.59 6.64 44.48 6.73L44.48 6.73L44.48 6.73Q44.37 6.83 44.27 7.01L44.27 7.01L44.27 7.01Q44.18 7.20 44.10 7.46L44.10 7.46L44.10 7.46Q43.95 7.87 43.80 8.00L43.80 8.00L43.80 8.00Q43.65 8.13 43.37 8.13L43.37 8.13L43.37 8.13Q42.67 8.13 42.67 7.43L42.67 7.43L42.67 7.43Q42.67 6.76 43.39 6.39L43.39 6.39L43.39 6.39Q44.10 6.02 45.42 6.02L45.42 6.02L45.42 6.02Q46.82 6.02 47.40 6.52L47.40 6.52L47.40 6.52Q47.99 7.01 47.99 8.20L47.99 8.20L47.99 11.34L47.99 11.34Q47.99 12.94 48.62 12.94L48.62 12.94L48.62 12.94Q48.82 12.94 49 12.89L49 12.89L49 12.89Q49.18 12.84 49.31 12.63L49.31 12.63L49.50 12.96L49.50 12.96Q49.34 13.29 48.89 13.50L48.89 13.50L48.89 13.50Q48.44 13.72 47.95 13.72L47.95 13.72L47.95 13.72Q47.33 13.72 47.03 13.33L47.03 13.33L47.03 13.33Q46.73 12.94 46.73 12.22L46.73 12.22L46.66 12.22L46.66 12.22Q46.30 12.91 45.65 13.31L45.65 13.31L45.65 13.31Q45.01 13.71 44.23 13.71L44.23 13.71L44.23 13.71Q43.34 13.71 42.84 13.26L42.84 13.26L42.84 13.26Q42.34 12.81 42.34 12.05L42.34 12.05L42.34 12.05Q42.34 11.72 42.45 11.41L42.45 11.41L42.45 11.41Q42.57 11.10 42.84 10.82L42.84 10.82L42.84 10.82Q43.11 10.54 43.54 10.27L43.54 10.27L43.54 10.27Q43.97 10.00 44.60 9.72L44.60 9.72ZM50.89 7.04L50.05 7.04L50.05 6.52L50.05 6.52Q50.79 6.09 51.21 5.66L51.21 5.66L51.21 5.66Q51.63 5.22 51.86 4.62L51.86 4.62L52.26 4.62L52.26 6.38L54.14 6.38L54.14 7.04L52.26 7.04L52.26 11.30L52.26 11.30Q52.26 11.79 52.31 12.12L52.31 12.12L52.31 12.12Q52.36 12.46 52.47 12.66L52.47 12.66L52.47 12.66Q52.58 12.87 52.77 12.95L52.77 12.95L52.77 12.95Q52.95 13.03 53.23 13.03L53.23 13.03L53.23 13.03Q53.58 13.03 53.82 12.89L53.82 12.89L53.82 12.89Q54.07 12.74 54.31 12.39L54.31 12.39L54.66 12.66L54.66 12.66Q54.46 13.17 53.98 13.45L53.98 13.45L53.98 13.45Q53.49 13.72 52.78 13.72L52.78 13.72L52.78 13.72Q51.86 13.72 51.37 13.28L51.37 13.28L51.37 13.28Q50.89 12.84 50.89 12.01L50.89 12.01L50.89 7.04ZM57.97 6.02L57.97 11.35L57.97 11.35Q57.97 11.90 58.02 12.23L58.02 12.23L58.02 12.23Q58.07 12.56 58.21 12.75L58.21 12.75L58.21 12.75Q58.35 12.94 58.60 13.01L58.60 13.01L58.60 13.01Q58.86 13.08 59.28 13.09L59.28 13.09L59.28 13.58L55.26 13.58L55.26 13.09L55.26 13.09Q55.68 13.08 55.94 13.00L55.94 13.00L55.94 13.00Q56.21 12.92 56.36 12.75L56.36 12.75L56.36 12.75Q56.50 12.57 56.55 12.26L56.55 12.26L56.55 12.26Q56.60 11.94 56.60 11.45L56.60 11.45L56.60 9.66L56.60 9.66Q56.60 8.85 56.58 8.32L56.58 8.32L56.58 8.32Q56.56 7.80 56.50 7.60L56.50 7.60L56.50 7.60Q56.43 7.28 56.18 7.16L56.18 7.16L56.18 7.16Q55.93 7.04 55.23 7.04L55.23 7.04L55.23 6.55L57.97 6.02ZM56.36 3.18L56.36 3.18L56.36 3.18Q56.36 2.81 56.62 2.56L56.62 2.56L56.62 2.56Q56.87 2.31 57.23 2.31L57.23 2.31L57.23 2.31Q57.60 2.31 57.85 2.56L57.85 2.56L57.85 2.56Q58.10 2.81 58.10 3.18L58.10 3.18L58.10 3.18Q58.10 3.54 57.85 3.79L57.85 3.79L57.85 3.79Q57.60 4.05 57.23 4.05L57.23 4.05L57.23 4.05Q56.87 4.05 56.62 3.79L56.62 3.79L56.62 3.79Q56.36 3.54 56.36 3.18ZM63.31 13.73L60.94 7.90L60.94 7.90Q60.77 7.48 60.64 7.23L60.64 7.23L60.64 7.23Q60.51 6.99 60.35 6.86L60.35 6.86L60.35 6.86Q60.20 6.73 60.01 6.70L60.01 6.70L60.01 6.70Q59.82 6.66 59.56 6.65L59.56 6.65L59.56 6.16L63.27 6.16L63.27 6.65L63.27 6.65Q62.99 6.66 62.80 6.68L62.80 6.68L62.80 6.68Q62.62 6.69 62.52 6.74L62.52 6.74L62.52 6.74Q62.41 6.79 62.37 6.88L62.37 6.88L62.37 6.88Q62.33 6.97 62.33 7.14L62.33 7.14L62.33 7.14Q62.33 7.38 62.39 7.59L62.39 7.59L62.39 7.59Q62.45 7.80 62.52 8.01L62.52 8.01L64.01 12.07L64.06 12.07L65.34 9.06L65.34 9.06Q65.63 8.36 65.76 7.94L65.76 7.94L65.76 7.94Q65.88 7.52 65.88 7.20L65.88 7.20L65.88 7.20Q65.88 6.87 65.72 6.76L65.72 6.76L65.72 6.76Q65.55 6.65 64.99 6.65L64.99 6.65L64.99 6.16L67.77 6.16L67.77 6.65L67.77 6.65Q67.55 6.65 67.37 6.76L67.37 6.76L67.37 6.76Q67.19 6.87 67.05 7.04L67.05 7.04L67.05 7.04Q66.93 7.20 66.81 7.46L66.81 7.46L66.81 7.46Q66.70 7.71 66.58 7.99L66.58 7.99L66.58 7.99Q66.46 8.27 66.36 8.55L66.36 8.55L66.36 8.55Q66.26 8.82 66.18 8.99L66.18 8.99L64.12 13.73L63.31 13.73ZM74.59 11.89L75.03 12.28L75.03 12.28Q73.84 13.72 72.07 13.72L72.07 13.72L72.07 13.72Q71.25 13.72 70.57 13.45L70.57 13.45L70.57 13.45Q69.90 13.17 69.42 12.68L69.42 12.68L69.42 12.68Q68.94 12.18 68.67 11.49L68.67 11.49L68.67 11.49Q68.40 10.79 68.40 9.95L68.40 9.95L68.40 9.95Q68.40 9.10 68.68 8.37L68.68 8.37L68.68 8.37Q68.96 7.64 69.48 7.13L69.48 7.13L69.48 7.13Q69.99 6.61 70.69 6.31L70.69 6.31L70.69 6.31Q71.40 6.02 72.24 6.02L72.24 6.02L72.24 6.02Q73.60 6.02 74.34 6.75L74.34 6.75L74.34 6.75Q75.08 7.49 75.08 8.86L75.08 8.86L75.08 8.86Q75.08 9.06 75.01 9.10L75.01 9.10L75.01 9.10Q74.93 9.14 74.65 9.14L74.65 9.14L70.04 9.14L70.04 9.14Q70.01 9.25 70 9.41L70 9.41L70 9.41Q69.99 9.58 69.99 9.77L69.99 9.77L69.99 9.77Q69.99 10.50 70.16 11.10L70.16 11.10L70.16 11.10Q70.34 11.69 70.67 12.11L70.67 12.11L70.67 12.11Q70.99 12.53 71.45 12.76L71.45 12.76L71.45 12.76Q71.90 12.99 72.46 12.99L72.46 12.99L72.46 12.99Q73.05 12.99 73.56 12.73L73.56 12.73L73.56 12.73Q74.06 12.47 74.59 11.89L74.59 11.89ZM70.14 8.50L72.72 8.50L72.72 8.50Q73.00 8.50 73.16 8.48L73.16 8.48L73.16 8.48Q73.33 8.47 73.42 8.43L73.42 8.43L73.42 8.43Q73.50 8.39 73.53 8.31L73.53 8.31L73.53 8.31Q73.56 8.23 73.56 8.11L73.56 8.11L73.56 8.11Q73.56 7.46 73.14 7.08L73.14 7.08L73.14 7.08Q72.73 6.69 72.02 6.69L72.02 6.69L72.02 6.69Q70.50 6.69 70.14 8.50L70.14 8.50Z"></path></g><defs data-v-fde0c5aa=""><!----></defs><g data-v-fde0c5aa="" id="abdc8091-80b8-4982-9d15-2393056c55a4" stroke="none" fill="#ffffff" transform="matrix(1.76806723817066,0,0,1.76806723817066,40,121.71092440003949)"><path d="M17.572 23.933l4.106 7.095L32 13.189h-8.981V7.582L11.51.972 0 7.582v13.222l11.51 6.611 6.062-3.482zm10.96-8.744l-6.855 11.846-6.855-11.846h13.71z"></path></g><defs data-v-fde0c5aa=""><!----></defs><g data-v-fde0c5aa="" id="cca127d7-784f-4607-8d32-cda716b0b684" fill="#ffffff" transform="matrix(0.3747336812890141,0,0,0.3747336812890141,109.25213331695281,163.4159764201148)"><path d="M8.76 10.68L8.76 10.68Q8.37 11.86 7.40 12.51L7.40 12.51L7.40 12.51Q6.43 13.16 5.07 13.16L5.07 13.16L5.07 13.16Q3.81 13.16 2.86 12.58L2.86 12.58L2.86 12.58Q1.90 12.00 1.39 10.92L1.39 10.92L1.39 10.92Q0.87 9.84 0.87 8.40L0.87 8.40L0.87 8.40Q0.87 6.96 1.39 5.88L1.39 5.88L1.39 5.88Q1.90 4.80 2.86 4.22L2.86 4.22L2.86 4.22Q3.81 3.64 5.05 3.64L5.05 3.64L5.05 3.64Q7.83 3.64 8.64 5.92L8.64 5.92L7.95 6.24L7.95 6.24Q7.63 5.26 6.92 4.77L6.92 4.77L6.92 4.77Q6.22 4.28 5.10 4.28L5.10 4.28L5.10 4.28Q4.06 4.28 3.27 4.78L3.27 4.78L3.27 4.78Q2.48 5.28 2.04 6.21L2.04 6.21L2.04 6.21Q1.61 7.14 1.61 8.40L1.61 8.40L1.61 8.40Q1.61 9.66 2.04 10.59L2.04 10.59L2.04 10.59Q2.46 11.52 3.24 12.02L3.24 12.02L3.24 12.02Q4.02 12.52 5.07 12.52L5.07 12.52L5.07 12.52Q6.19 12.52 6.97 11.97L6.97 11.97L6.97 11.97Q7.76 11.42 8.06 10.42L8.06 10.42L8.76 10.68ZM18.52 12.38L24.07 12.38L24.07 13.02L17.82 13.02L17.82 3.78L18.52 3.78L18.52 12.38ZM35.95 3.64L35.95 3.64Q37.25 3.64 38.21 4.22L38.21 4.22L38.21 4.22Q39.17 4.80 39.69 5.87L39.69 5.87L39.69 5.87Q40.21 6.94 40.21 8.40L40.21 8.40L40.21 8.40Q40.21 9.86 39.69 10.93L39.69 10.93L39.69 10.93Q39.17 12.00 38.21 12.58L38.21 12.58L38.21 12.58Q37.25 13.16 35.95 13.16L35.95 13.16L35.95 13.16Q34.65 13.16 33.69 12.58L33.69 12.58L33.69 12.58Q32.73 12.00 32.21 10.93L32.21 10.93L32.21 10.93Q31.70 9.86 31.70 8.40L31.70 8.40L31.70 8.40Q31.70 6.94 32.21 5.87L32.21 5.87L32.21 5.87Q32.73 4.80 33.69 4.22L33.69 4.22L33.69 4.22Q34.65 3.64 35.95 3.64L35.95 3.64ZM35.95 4.28L35.95 4.28Q34.87 4.28 34.08 4.78L34.08 4.78L34.08 4.78Q33.29 5.28 32.87 6.21L32.87 6.21L32.87 6.21Q32.44 7.14 32.44 8.40L32.44 8.40L32.44 8.40Q32.44 9.66 32.87 10.59L32.87 10.59L32.87 10.59Q33.29 11.52 34.08 12.02L34.08 12.02L34.08 12.02Q34.87 12.52 35.95 12.52L35.95 12.52L35.95 12.52Q37.03 12.52 37.83 12.02L37.83 12.02L37.83 12.02Q38.63 11.52 39.05 10.59L39.05 10.59L39.05 10.59Q39.48 9.66 39.48 8.40L39.48 8.40L39.48 8.40Q39.48 7.14 39.05 6.21L39.05 6.21L39.05 6.21Q38.63 5.28 37.83 4.78L37.83 4.78L37.83 4.78Q37.03 4.28 35.95 4.28L35.95 4.28ZM56.55 3.78L56.55 9.65L56.55 9.65Q56.55 11.35 55.62 12.26L55.62 12.26L55.62 12.26Q54.70 13.16 52.99 13.16L52.99 13.16L52.99 13.16Q51.28 13.16 50.35 12.26L50.35 12.26L50.35 12.26Q49.42 11.35 49.42 9.65L49.42 9.65L49.42 3.78L50.12 3.78L50.12 9.51L50.12 9.51Q50.12 10.99 50.85 11.75L50.85 11.75L50.85 11.75Q51.58 12.52 52.99 12.52L52.99 12.52L52.99 12.52Q54.39 12.52 55.12 11.75L55.12 11.75L55.12 11.75Q55.85 10.99 55.85 9.51L55.85 9.51L55.85 3.78L56.55 3.78ZM69.26 3.78L69.26 3.78Q71.47 3.78 72.67 4.95L72.67 4.95L72.67 4.95Q73.86 6.12 73.86 8.33L73.86 8.33L73.86 8.33Q73.86 10.60 72.67 11.81L72.67 11.81L72.67 11.81Q71.47 13.02 69.26 13.02L69.26 13.02L66.35 13.02L66.35 3.78L69.26 3.78ZM69.31 12.38L69.31 12.38Q71.16 12.38 72.15 11.33L72.15 11.33L72.15 11.33Q73.14 10.29 73.14 8.33L73.14 8.33L73.14 8.33Q73.14 6.45 72.15 5.44L72.15 5.44L72.15 5.44Q71.16 4.42 69.31 4.42L69.31 4.42L67.05 4.42L67.05 12.38L69.31 12.38ZM101.68 3.78L101.68 13.02L100.81 13.02L95.91 5.77L95.23 4.54L95.21 4.54L95.26 5.70L95.26 13.02L94.58 13.02L94.58 3.78L95.47 3.78L100.35 11.02L101.05 12.26L101.02 11.10L101.02 3.78L101.68 3.78ZM117.88 13.02L116.72 10.12L112.29 10.12L111.15 13.02L110.40 13.02L114.10 3.78L114.93 3.78L118.62 13.02L117.88 13.02ZM112.56 9.48L116.47 9.48L114.86 5.45L114.52 4.47L114.51 4.47L114.17 5.42L112.56 9.48ZM132.31 3.78L132.31 4.42L128.94 4.42L128.94 13.02L128.24 13.02L128.24 4.42L124.87 4.42L124.87 3.78L132.31 3.78ZM141.78 3.78L141.78 13.02L141.08 13.02L141.08 3.78L141.78 3.78ZM158.51 3.78L154.95 13.02L154.13 13.02L150.56 3.78L151.31 3.78L154.04 10.93L154.53 12.36L155.02 10.93L157.77 3.78L158.51 3.78ZM167.99 12.38L173.82 12.38L173.82 13.02L167.29 13.02L167.29 3.78L173.60 3.78L173.60 4.42L167.99 4.42L167.99 7.99L172.42 7.99L172.42 8.65L167.99 8.65L167.99 12.38ZM200.09 13.02L198.93 10.12L194.50 10.12L193.35 13.02L192.61 13.02L196.31 3.78L197.13 3.78L200.83 13.02L200.09 13.02ZM194.77 9.48L198.67 9.48L197.06 5.45L196.73 4.47L196.71 4.47L196.38 5.42L194.77 9.48ZM213.60 6.54L211.74 13.02L210.87 13.02L207.98 3.78L208.74 3.78L211.30 12.45L213.72 3.78L214.54 3.78L216.96 12.46L219.55 3.78L220.26 3.78L217.38 13.02L216.51 13.02L214.65 6.54L214.13 4.54L214.12 4.54L213.60 6.54ZM231.88 3.64L231.88 3.64Q234.49 3.64 235.37 5.68L235.37 5.68L234.77 6.17L234.77 6.17Q234.42 5.18 233.72 4.73L233.72 4.73L233.72 4.73Q233.03 4.28 231.90 4.28L231.90 4.28L231.90 4.28Q231.08 4.28 230.48 4.54L230.48 4.54L230.48 4.54Q229.88 4.79 229.57 5.22L229.57 5.22L229.57 5.22Q229.25 5.66 229.25 6.20L229.25 6.20L229.25 6.20Q229.25 6.73 229.52 7.08L229.52 7.08L229.52 7.08Q229.78 7.43 230.42 7.68L230.42 7.68L230.42 7.68Q231.06 7.92 232.18 8.12L232.18 8.12L232.18 8.12Q233.98 8.43 234.74 9.02L234.74 9.02L234.74 9.02Q235.49 9.60 235.49 10.64L235.49 10.64L235.49 10.64Q235.49 11.38 235.06 11.96L235.06 11.96L235.06 11.96Q234.63 12.53 233.84 12.84L233.84 12.84L233.84 12.84Q233.04 13.16 232.02 13.16L232.02 13.16L232.02 13.16Q230.57 13.16 229.57 12.58L229.57 12.58L229.57 12.58Q228.56 12.00 228.20 10.95L228.20 10.95L228.82 10.47L228.82 10.47Q229.10 11.47 229.94 11.99L229.94 11.99L229.94 11.99Q230.79 12.52 232.04 12.52L232.04 12.52L232.04 12.52Q233.24 12.52 234.00 12.03L234.00 12.03L234.00 12.03Q234.77 11.54 234.77 10.68L234.77 10.68L234.77 10.68Q234.77 9.94 234.14 9.51L234.14 9.51L234.14 9.51Q233.52 9.07 231.98 8.81L231.98 8.81L231.98 8.81Q230.68 8.58 229.92 8.26L229.92 8.26L229.92 8.26Q229.17 7.94 228.84 7.46L228.84 7.46L228.84 7.46Q228.51 6.99 228.51 6.27L228.51 6.27L228.51 6.27Q228.51 5.56 228.92 4.96L228.92 4.96L228.92 4.96Q229.33 4.35 230.10 4.00L230.10 4.00L230.10 4.00Q230.86 3.64 231.88 3.64L231.88 3.64ZM263.38 10.68L263.38 10.68Q262.99 11.86 262.02 12.51L262.02 12.51L262.02 12.51Q261.04 13.16 259.69 13.16L259.69 13.16L259.69 13.16Q258.43 13.16 257.47 12.58L257.47 12.58L257.47 12.58Q256.52 12.00 256.00 10.92L256.00 10.92L256.00 10.92Q255.49 9.84 255.49 8.40L255.49 8.40L255.49 8.40Q255.49 6.96 256.00 5.88L256.00 5.88L256.00 5.88Q256.52 4.80 257.47 4.22L257.47 4.22L257.47 4.22Q258.43 3.64 259.67 3.64L259.67 3.64L259.67 3.64Q262.44 3.64 263.26 5.92L263.26 5.92L262.57 6.24L262.57 6.24Q262.25 5.26 261.54 4.77L261.54 4.77L261.54 4.77Q260.83 4.28 259.71 4.28L259.71 4.28L259.71 4.28Q258.68 4.28 257.89 4.78L257.89 4.78L257.89 4.78Q257.10 5.28 256.66 6.21L256.66 6.21L256.66 6.21Q256.23 7.14 256.23 8.40L256.23 8.40L256.23 8.40Q256.23 9.66 256.66 10.59L256.66 10.59L256.66 10.59Q257.08 11.52 257.86 12.02L257.86 12.02L257.86 12.02Q258.64 12.52 259.69 12.52L259.69 12.52L259.69 12.52Q260.81 12.52 261.59 11.97L261.59 11.97L261.59 11.97Q262.37 11.42 262.68 10.42L262.68 10.42L263.38 10.68ZM276.11 3.64L276.11 3.64Q277.41 3.64 278.37 4.22L278.37 4.22L278.37 4.22Q279.33 4.80 279.85 5.87L279.85 5.87L279.85 5.87Q280.36 6.94 280.36 8.40L280.36 8.40L280.36 8.40Q280.36 9.86 279.85 10.93L279.85 10.93L279.85 10.93Q279.33 12.00 278.37 12.58L278.37 12.58L278.37 12.58Q277.41 13.16 276.11 13.16L276.11 13.16L276.11 13.16Q274.81 13.16 273.85 12.58L273.85 12.58L273.85 12.58Q272.89 12.00 272.37 10.93L272.37 10.93L272.37 10.93Q271.85 9.86 271.85 8.40L271.85 8.40L271.85 8.40Q271.85 6.94 272.37 5.87L272.37 5.87L272.37 5.87Q272.89 4.80 273.85 4.22L273.85 4.22L273.85 4.22Q274.81 3.64 276.11 3.64L276.11 3.64ZM276.11 4.28L276.11 4.28Q275.03 4.28 274.24 4.78L274.24 4.78L274.24 4.78Q273.45 5.28 273.02 6.21L273.02 6.21L273.02 6.21Q272.59 7.14 272.59 8.40L272.59 8.40L272.59 8.40Q272.59 9.66 273.02 10.59L273.02 10.59L273.02 10.59Q273.45 11.52 274.24 12.02L274.24 12.02L274.24 12.02Q275.03 12.52 276.11 12.52L276.11 12.52L276.11 12.52Q277.19 12.52 277.98 12.02L277.98 12.02L277.98 12.02Q278.78 11.52 279.21 10.59L279.21 10.59L279.21 10.59Q279.64 9.66 279.64 8.40L279.64 8.40L279.64 8.40Q279.64 7.14 279.21 6.21L279.21 6.21L279.21 6.21Q278.78 5.28 277.98 4.78L277.98 4.78L277.98 4.78Q277.19 4.28 276.11 4.28L276.11 4.28ZM296.79 3.78L296.79 13.02L295.92 13.02L291.02 5.77L290.33 4.54L290.32 4.54L290.36 5.70L290.36 13.02L289.69 13.02L289.69 3.78L290.57 3.78L295.46 11.02L296.16 12.26L296.13 11.10L296.13 3.78L296.79 3.78ZM309.55 3.64L309.55 3.64Q312.16 3.64 313.04 5.68L313.04 5.68L312.44 6.17L312.44 6.17Q312.09 5.18 311.40 4.73L311.40 4.73L311.40 4.73Q310.70 4.28 309.57 4.28L309.57 4.28L309.57 4.28Q308.76 4.28 308.15 4.54L308.15 4.54L308.15 4.54Q307.55 4.79 307.24 5.22L307.24 5.22L307.24 5.22Q306.92 5.66 306.92 6.20L306.92 6.20L306.92 6.20Q306.92 6.73 307.19 7.08L307.19 7.08L307.19 7.08Q307.45 7.43 308.09 7.68L308.09 7.68L308.09 7.68Q308.73 7.92 309.85 8.12L309.85 8.12L309.85 8.12Q311.65 8.43 312.41 9.02L312.41 9.02L312.41 9.02Q313.17 9.60 313.17 10.64L313.17 10.64L313.17 10.64Q313.17 11.38 312.73 11.96L312.73 11.96L312.73 11.96Q312.30 12.53 311.51 12.84L311.51 12.84L311.51 12.84Q310.72 13.16 309.69 13.16L309.69 13.16L309.69 13.16Q308.24 13.16 307.24 12.58L307.24 12.58L307.24 12.58Q306.24 12.00 305.87 10.95L305.87 10.95L306.49 10.47L306.49 10.47Q306.77 11.47 307.62 11.99L307.62 11.99L307.62 11.99Q308.46 12.52 309.71 12.52L309.71 12.52L309.71 12.52Q310.91 12.52 311.68 12.03L311.68 12.03L311.68 12.03Q312.44 11.54 312.44 10.68L312.44 10.68L312.44 10.68Q312.44 9.94 311.81 9.51L311.81 9.51L311.81 9.51Q311.19 9.07 309.65 8.81L309.65 8.81L309.65 8.81Q308.35 8.58 307.59 8.26L307.59 8.26L307.59 8.26Q306.84 7.94 306.51 7.46L306.51 7.46L306.51 7.46Q306.18 6.99 306.18 6.27L306.18 6.27L306.18 6.27Q306.18 5.56 306.59 4.96L306.59 4.96L306.59 4.96Q307.01 4.35 307.77 4.00L307.77 4.00L307.77 4.00Q308.53 3.64 309.55 3.64L309.55 3.64ZM329.38 3.78L329.38 9.65L329.38 9.65Q329.38 11.35 328.45 12.26L328.45 12.26L328.45 12.26Q327.53 13.16 325.82 13.16L325.82 13.16L325.82 13.16Q324.11 13.16 323.18 12.26L323.18 12.26L323.18 12.26Q322.25 11.35 322.25 9.65L322.25 9.65L322.25 3.78L322.95 3.78L322.95 9.51L322.95 9.51Q322.95 10.99 323.68 11.75L323.68 11.75L323.68 11.75Q324.41 12.52 325.82 12.52L325.82 12.52L325.82 12.52Q327.22 12.52 327.95 11.75L327.95 11.75L327.95 11.75Q328.68 10.99 328.68 9.51L328.68 9.51L328.68 3.78L329.38 3.78ZM339.88 12.38L345.42 12.38L345.42 13.02L339.18 13.02L339.18 3.78L339.88 3.78L339.88 12.38ZM358.54 3.78L358.54 4.42L355.17 4.42L355.17 13.02L354.47 13.02L354.47 4.42L351.09 4.42L351.09 3.78L358.54 3.78ZM368.00 3.78L368.00 13.02L367.30 13.02L367.30 3.78L368.00 3.78ZM385.01 3.78L385.01 13.02L384.15 13.02L379.25 5.77L378.56 4.54L378.55 4.54L378.59 5.70L378.59 13.02L377.92 13.02L377.92 3.78L378.80 3.78L383.68 11.02L384.38 12.26L384.36 11.10L384.36 3.78L385.01 3.78ZM398.48 8.50L402.28 8.50L402.28 13.02L401.72 13.02L401.69 11.41L401.69 11.41Q401.31 12.25 400.51 12.71L400.51 12.71L400.51 12.71Q399.70 13.16 398.51 13.16L398.51 13.16L398.51 13.16Q397.25 13.16 396.31 12.58L396.31 12.58L396.31 12.58Q395.36 12.00 394.85 10.92L394.85 10.92L394.85 10.92Q394.34 9.84 394.34 8.40L394.34 8.40L394.34 8.40Q394.34 6.96 394.86 5.88L394.86 5.88L394.86 5.88Q395.39 4.80 396.34 4.22L396.34 4.22L396.34 4.22Q397.29 3.64 398.55 3.64L398.55 3.64L398.55 3.64Q399.97 3.64 400.86 4.20L400.86 4.20L400.86 4.20Q401.76 4.76 402.21 5.91L402.21 5.91L401.56 6.24L401.56 6.24Q401.24 5.28 400.48 4.78L400.48 4.78L400.48 4.78Q399.71 4.28 398.55 4.28L398.55 4.28L398.55 4.28Q397.52 4.28 396.73 4.78L396.73 4.78L396.73 4.78Q395.95 5.28 395.51 6.21L395.51 6.21L395.51 6.21Q395.08 7.14 395.08 8.40L395.08 8.40L395.08 8.40Q395.08 10.32 396.00 11.42L396.00 11.42L396.00 11.42Q396.91 12.52 398.54 12.52L398.54 12.52L398.54 12.52Q399.55 12.52 400.25 12.12L400.25 12.12L400.25 12.12Q400.95 11.72 401.28 11.07L401.28 11.07L401.28 11.07Q401.62 10.42 401.62 9.67L401.62 9.67L401.62 9.16L398.48 9.16L398.48 8.50Z"></path></g></svg>